<?xml version="1.0" encoding="UTF-8"?>
<svg xmlns="http://www.w3.org/2000/svg" xmlns:xlink="http://www.w3.org/1999/xlink" xmlns:svgjs="http://svgjs.com/svgjs" version="1.1" width="512" height="512" x="0" y="0" viewBox="0 0 512 512" style="enable-background:new 0 0 512 512" xml:space="preserve" class="">
  <g transform="matrix(0.9999999999999998,0,0,0.9999999999999998,2.2737367544323206e-13,2.842170943040401e-14)">
    <path d="M490.341 68.231h-41.806V39.175c0-15.475-12.589-28.063-28.063-28.063h-2.048c-15.475 0-28.063 12.589-28.063 28.063v29.056H143.954V39.175c0-15.475-12.59-28.063-28.064-28.063h-2.047c-15.475 0-28.064 12.589-28.064 28.063v29.056H43.974c-9.374 0-17 7.626-17 17v100.98L4.722 448.679c-.401 4.729 1.21 9.444 4.42 12.938s7.773 5.498 12.519 5.498h5.313v16.772c0 9.374 7.626 17 17 17h446.367c9.374 0 17-7.626 17-17V85.231c0-9.374-7.626-17-17-17zM404.36 39.175c0-7.755 6.309-14.063 14.063-14.063h2.048c7.755 0 14.063 6.309 14.063 14.063v64.152c0 7.755-6.309 14.064-14.063 14.064h-2.048c-7.755 0-14.063-6.31-14.063-14.064zm-304.582 0c0-7.755 6.31-14.063 14.064-14.063h2.047c7.755 0 14.064 6.309 14.064 14.063v64.152c0 7.755-6.31 14.064-14.064 14.064h-2.047c-7.755 0-14.064-6.31-14.064-14.064zM21.66 453.116c-1.146 0-1.876-.607-2.209-.97s-.877-1.141-.78-2.283l21.734-256.359h451.834l-21.145 144.221h-83.783c-8.375 0-15.606 6.248-16.82 14.534l-14.788 100.857zm438.583-101.392-88.5 88.502 12.6-85.937a3.017 3.017 0 0 1 2.969-2.565zm33.098 132.164c0 1.654-1.346 3-3 3H43.974c-1.654 0-3-1.346-3-3v-16.772H357.61c4.539 0 8.809-1.768 12.021-4.979l110.117-110.119a17.12 17.12 0 0 0 4.801-9.556l8.791-59.96v201.386zm0-304.384H40.974v-10.392h452.367zm0-24.392H40.974V85.231c0-1.654 1.346-3 3-3h41.805v21.097c0 15.475 12.59 28.064 28.064 28.064h2.047c15.475 0 28.064-12.59 28.064-28.064V82.231H390.36v21.097c0 15.475 12.589 28.064 28.063 28.064h2.048c15.475 0 28.063-12.59 28.063-28.064V82.231h41.806c1.654 0 3 1.346 3 3v69.881zM207.034 401.131c-6.773 0-12.873-2.987-16.735-8.197l-46.618-62.874c-7.074-9.543-4.492-23.842 5.756-31.874 5.289-4.143 11.919-6.032 18.194-5.187 5.6.755 10.48 3.595 13.745 7.996l31.792 42.877L334.15 224.099c9.309-9.217 23.775-9.874 32.249-1.462 3.864 3.835 5.99 9.062 5.986 14.715-.004 6.355-2.739 12.705-7.505 17.423L224.512 393.74c-4.744 4.697-11.116 7.391-17.478 7.391zm-42.408-94.332c-2.229 0-4.563.848-6.555 2.407-4.259 3.338-5.699 9.069-3.145 12.516l46.618 62.874c1.212 1.635 3.161 2.535 5.489 2.535 2.703 0 5.483-1.218 7.628-3.341L355.03 244.825c2.13-2.108 3.353-4.836 3.354-7.482.001-1.338-.319-3.251-1.85-4.771-2.992-2.968-8.73-2.292-12.536 1.476l-122.62 121.397a11.97 11.97 0 0 1-9.357 3.438 11.996 11.996 0 0 1-8.726-4.819l-33.164-44.729c-1.274-1.718-3.081-2.286-4.371-2.461a8.537 8.537 0 0 0-1.134-.075z" fill="#cc2936" data-original="#000000" opacity="1" class=""/>
  </g>
</svg>
