<?xml version="1.0" encoding="UTF-8"?>
<svg xmlns="http://www.w3.org/2000/svg" xmlns:xlink="http://www.w3.org/1999/xlink" xmlns:svgjs="http://svgjs.com/svgjs" version="1.1" width="512" height="512" x="0" y="0" viewBox="0 0 48 48" style="enable-background:new 0 0 512 512" xml:space="preserve" class="">
  <g>
    <path d="M4.74 39.58a14.71 14.71 0 0 0 .07 1.53 1 1 0 0 0 1 .89h20.45a1 1 0 1 0 0-2H6.74v-.42A16.57 16.57 0 0 1 23.26 23a16.31 16.31 0 0 1 11.53 4.71 1 1 0 0 0 1.42 0 1 1 0 0 0 0-1.41 18.26 18.26 0 0 0-8.09-4.63 9.51 9.51 0 1 0-9.68 0 18.58 18.58 0 0 0-13.7 17.91zm11-26.08a7.5 7.5 0 1 1 7.5 7.5 7.51 7.51 0 0 1-7.48-7.5z" fill="#cc2936" data-original="#000000" class="" opacity="1"/>
    <path d="M43.26 36.5a1 1 0 0 0-1-1h-5.5V30a1 1 0 1 0-2 0v5.5h-5.5a1 1 0 0 0 0 2h5.5V43a1 1 0 0 0 2 0v-5.5h5.5a1 1 0 0 0 1-1z" fill="#cc2936" data-original="#000000" class="" opacity="1"/>
  </g>
</svg>
