<?xml version="1.0" encoding="UTF-8"?>
<svg xmlns="http://www.w3.org/2000/svg" xmlns:xlink="http://www.w3.org/1999/xlink" xmlns:svgjs="http://svgjs.com/svgjs" version="1.1" width="512" height="512" x="0" y="0" viewBox="0 0 480 480" style="enable-background:new 0 0 512 512" xml:space="preserve" class="">
  <g>
    <path d="M88 448a7.993 7.993 0 0 0 6.238-3C97.602 440.84 176 342.465 176 296c0-48.602-39.398-88-88-88S0 247.398 0 296c0 46.465 78.398 144.8 81.762 149A7.993 7.993 0 0 0 88 448zm0-224c39.746.043 71.957 32.254 72 72 0 31.04-47.29 98.91-72 131.031C63.29 394.921 16 327.055 16 296c.043-39.746 32.254-71.957 72-72zm0 0" fill="#cc2936" data-original="#000000" opacity="1" class=""/>
    <path d="M120 288c0-17.672-14.328-32-32-32s-32 14.328-32 32 14.328 32 32 32 32-14.328 32-32zm-48 0c0-8.836 7.164-16 16-16s16 7.164 16 16-7.164 16-16 16-16-7.164-16-16zM416 168a7.985 7.985 0 0 0 6.063-2.785C428 158.328 480 96.945 480 64c0-35.348-28.652-64-64-64s-64 28.652-64 64c0 32.945 52 94.328 57.938 101.215A7.985 7.985 0 0 0 416 168zm0-152c26.5.027 47.973 21.5 48 48 0 20.273-30.543 62.047-48 83.512-17.465-21.465-48-63.2-48-83.512.027-26.5 21.5-47.973 48-48zm0 0" fill="#cc2936" data-original="#000000" opacity="1" class=""/>
    <path d="M440 56c0-13.254-10.746-24-24-24s-24 10.746-24 24 10.746 24 24 24 24-10.746 24-24zm-32 0a8 8 0 1 1 16 0 8 8 0 0 1-16 0zM408 200h8a8 8 0 0 0 0-16h-8a8 8 0 0 0 0 16zM304 248h16.176a8 8 0 0 0 0-16H303.87a7.955 7.955 0 0 0-5.629 2.352 7.943 7.943 0 0 0-2.304 5.648c.027 4.43 3.632 8.004 8.062 8zM393.688 240a8 8 0 0 0 8 8h16.296a8 8 0 0 0 0-16h-16.296a8 8 0 0 0-8 8zM359.098 200h16.3a8 8 0 0 0 0-16h-16.3c-4.422 0-8 3.582-8 8s3.578 8 8 8zM145.719 464h-16.305a8 8 0 0 0 0 16h16.305a8 8 0 0 0 0-16zM280.504 228.96c.558 0 1.113-.058 1.656-.175a8 8 0 0 0 6.184-9.465A16.632 16.632 0 0 1 288 216a15.998 15.998 0 0 1 1.742-7.281 7.997 7.997 0 0 0-3.504-10.758 7.997 7.997 0 0 0-10.758 3.504 32.002 32.002 0 0 0-2.793 21.12 8.004 8.004 0 0 0 7.817 6.376zM352.8 248h16.305a8 8 0 0 0 0-16h-16.304a8 8 0 0 0 0 16zM310.191 200h16.305a8 8 0 0 0 0-16h-16.305a8 8 0 0 0 0 16zM231.137 339.016c.633.164 1.289.242 1.941.242a8.005 8.005 0 0 0 7.754-6.067 28.234 28.234 0 0 1 5.703-11.199 8.003 8.003 0 0 0-4.672-13.18 8.006 8.006 0 0 0-7.574 2.891 44.07 44.07 0 0 0-8.976 17.602 7.983 7.983 0 0 0 .898 6.062 7.973 7.973 0 0 0 4.926 3.649zM389.184 463.664A38.98 38.98 0 0 1 384 464h-10.07c-4.422 0-8 3.582-8 8s3.578 8 8 8H384c2.406 0 4.813-.156 7.2-.465a8.001 8.001 0 1 0-2.047-15.871zM400.328 370.398A55.976 55.976 0 0 0 384 368h-2.098a8 8 0 0 0 0 16H384c3.953 0 7.887.582 11.672 1.727.754.234 1.539.351 2.328.351a7.998 7.998 0 0 0 2.328-15.652zM383.266 312a8 8 0 0 0 0-16h-16.297a8 8 0 0 0 0 16zM431.07 436.39a7.998 7.998 0 0 0-10.574 4 39.917 39.917 0 0 1-7.558 11.204 7.997 7.997 0 0 0 3.813 13.441 8.001 8.001 0 0 0 7.745-2.387 55.749 55.749 0 0 0 10.594-15.687 8.003 8.003 0 0 0-4.02-10.57zM472.969 273.406a8.003 8.003 0 0 0-9.946 5.41 24.267 24.267 0 0 1-6.246 10.352 8.003 8.003 0 0 0-.12 11.32 8.007 8.007 0 0 0 11.32.121 40.202 40.202 0 0 0 10.398-17.257 8.002 8.002 0 0 0-.64-6.094 8.02 8.02 0 0 0-4.766-3.852zM463.84 258.64a8.002 8.002 0 0 0 5.96-13.343A40.25 40.25 0 0 0 453 234.16c-4.18-1.437-8.73.79-10.168 4.969-1.437 4.18.79 8.73 4.969 10.168a23.99 23.99 0 0 1 10.078 6.687 8.013 8.013 0 0 0 5.96 2.657zM349.305 368h-16.297a8 8 0 0 0 0 16h16.297a8 8 0 0 0 0-16zM432.168 296h-16.305a8 8 0 0 0 0 16h16.305a8 8 0 0 0 0-16zM194.617 464H178.32a8 8 0 0 0 0 16h16.297a8 8 0 0 0 0-16zM430.344 392.559a8.014 8.014 0 0 0-11.137-2.094 8.014 8.014 0 0 0-2.094 11.137 39.563 39.563 0 0 1 5.598 12.277 8.003 8.003 0 0 0 13.496 3.93 8.003 8.003 0 0 0 1.984-7.93 55.56 55.56 0 0 0-7.847-17.32zM255.617 365.129a28.454 28.454 0 0 1-9.738-7.961 7.998 7.998 0 0 0-11.227-1.41c-3.492 2.707-4.12 7.734-1.414 11.226a44.395 44.395 0 0 0 15.297 12.489 8.002 8.002 0 0 0 10.559-3.711 7.999 7.999 0 0 0-3.477-10.633zM243.52 464H227.2a8 8 0 0 0 0 16h16.32a8 8 0 0 0 0-16zM341.328 464h-16.297a8 8 0 0 0 0 16h16.297a8 8 0 0 0 0-16zM285.465 312a8 8 0 0 0 0-16h-16.297a8 8 0 0 0 0 16zM334.398 312a8 8 0 0 0 0-16h-16.336a8 8 0 0 0 0 16zM300.406 368h-16.3a8 8 0 0 0 0 16h16.3c4.422 0 8-3.582 8-8s-3.578-8-8-8zM292.434 464h-16.305a8 8 0 0 0 0 16h16.305a8 8 0 0 0 0-16zM96 464h-8a8 8 0 0 0 0 16h8a8 8 0 0 0 0-16zm0 0" fill="#cc2936" data-original="#000000" opacity="1" class=""/>
  </g>
</svg>
