<svg version="1.1" x="0px" y="0px" width="570" height="330" xmlns="http://www.w3.org/2000/svg" xmlns:xlink="http://www.w3.org/1999/xlink" xmlns:a="http://ns.adobe.com/AdobeSVGViewerExtensions/3.0/" xml:space="preserve"><g transform="translate(202.57044219971 20.262407601383) scale(1.9156291914655 1.9156291914655) rotate(0 43.039699554443 43.06676864624)"><path d="M85.988 40.273c-.051-.72-.109-1.44-.2-2.15-.329-2.83-.93-5.59-1.79-8.23l-6.72 2.21c.06.16.11.33.159.49.431 1.41-.709 2.66-2.01 2.64a2.19 2.19 0 01-.959-.26c-8.721-4.87-19.121-7.7-30.301-7.7-12.32 0-23.689 3.44-32.92 9.25-.27.17-.54.26-.82.3-1.35.18-2.64-1.06-2.27-2.54.17-.69.37-1.37.59-2.04l-6.65-2.19-.06-.02c-1.6 4.96-2.3 10.32-1.95 15.87 1.37 21.449 18.69 38.77 40.14 40.14 25.941 1.66 47.421-19.819 45.761-45.77zm-47.31 35.39a2.635 2.635 0 01-3.2 2.58c-14.24-3.051-25.37-14.561-27.87-28.99-.18-1.02.25-2.05 1.1-2.65a56.925 56.925 0 017.2-4.339c1.55-.79 3.45.12 3.78 1.83 1.72 8.89 8.38 16.009 17.021 18.39 1.15.31 1.97 1.33 1.97 2.529v10.65zm11.91 2.59a2.641 2.641 0 01-3.189-2.59v-10.63c0-1.21.82-2.24 1.99-2.56 8.92-2.461 15.729-9.99 17.16-19.3.26-1.73 2.129-2.69 3.719-1.96a59.036 59.036 0 017.271 3.96c.851.55 1.29 1.55 1.16 2.56-1.961 15.14-13.371 27.36-28.111 30.52z" fill="#ffffff"></path><path d="M85.809 38.123h-.021c-.329-2.83-.93-5.59-1.79-8.23l.051-.02c.84 2.64 1.439 5.4 1.76 8.25z" fill="#ffffff"></path><path d="M40.038 7.243a35.59 35.59 0 00-17.84 6.56l-4.13-5.75-.01-.01a42.724 42.724 0 0121.64-7.91v.04l.34 7.07z" fill="#ffffff"></path><path d="M64.818 5.883l-.051.08-3.539 6.11a35.693 35.693 0 00-18.19-4.95h-.08l-.34-7.08v-.04c8.07-.1 15.67 2.05 22.2 5.88z" fill="#ffffff"></path><path d="M75.538 27.693c-.05-.11-.101-.21-.159-.32-.16-.34-.33-.68-.511-1.01-.19-.359-.38-.72-.59-1.07-.72-1.27-1.521-2.5-2.399-3.66-.201-.28-.4-.55-.621-.81a.608.608 0 00-.1-.13c-.221-.29-.449-.57-.689-.84-.76-.9-1.57-1.76-2.42-2.58-.271-.27-.551-.53-.84-.8-.031-.02-.07-.06-.111-.09-.33-.3-.67-.59-1.01-.87a.99.99 0 00-.109-.1 36.434 36.434 0 00-2.291-1.75l3.551-6.13.05-.08c6.69 4.56 12.05 10.96 15.3 18.52l-.06.03-6.591 2.58c-.129-.3-.26-.6-.4-.89z" fill="#ffffff"></path><path d="M19.878 15.593a35.966 35.966 0 00-9.81 13.15l-6.54-2.56c.92-2.16 2.01-4.23 3.26-6.2.26-.4.52-.81.79-1.2.28-.4.56-.79.84-1.18a38.806 38.806 0 012.06-2.6c.39-.46.8-.91 1.22-1.36.3-.33.61-.64.92-.96.62-.63 1.27-1.24 1.93-1.82.19-.17.37-.34.56-.5.19-.16.39-.33.58-.479.021-.021.03-.04.05-.04l4.14 5.749z" fill="#ffffff"></path></g>
<g transform="translate(111.82775406443 250.87540998837)  scale(1.0773301161569 1.0773301161569)"><text dominant-baseline="auto" alignment-baseline="auto" font-family="Sansation" font-size="62px" fill="#ffffff" letter-spacing="3" xml:space="preserve">ABCD Taxi</text></g>
<g transform="translate(108.97443712248 304.46803977677)  scale(0.62526646747719 0.62526646747719)"><text dominant-baseline="auto" alignment-baseline="auto" font-family="Sansation" font-size="34px" fill="#ffffff" letter-spacing="1" xml:space="preserve">Arrivez Bien à Chaque Destination</text></g>
<g transform="translate(263.54998779297 79.950133978817) scale(2.1479369434528 2.1479369434528) rotate(0 9.8305006027222 12.444000244141)"><path d="M0.514,12.967c0,0,2.42,7.167,9.03,11.711l0.296,0.21l0.311-0.21c6.528-4.662,8.994-11.711,8.994-11.711
    c0.333-0.985,0.516-2.041,0.516-3.137C19.66,4.4,15.258,0,9.83,0C4.4,0,0,4.4,0,9.83C0,10.926,0.182,11.981,0.514,12.967z
       M9.83,4.541c2.92,0,5.288,2.368,5.288,5.289c0,2.92-2.368,5.287-5.288,5.287c-2.922,0-5.289-2.367-5.289-5.287
 C4.541,6.909,6.908,4.541,9.83,4.541z" fill="#ffffff"></path></g>
<g transform="translate(20.018585205078 269.7012937619) scale(0.99992986715065 0.99991967464454) rotate(0 265 3.3451173305511)"><path d="M0,6.69h530C530,6.69,263.079-8.363,0,6.69z" fill="#ffffff"></path></g>
</svg>