<?xml version="1.0" encoding="UTF-8"?>
<svg xmlns="http://www.w3.org/2000/svg" xmlns:xlink="http://www.w3.org/1999/xlink" xmlns:svgjs="http://svgjs.com/svgjs" version="1.1" width="512" height="512" x="0" y="0" viewBox="0 0 682.667 682.667" style="enable-background:new 0 0 512 512" xml:space="preserve" class="">
  <g>
    <defs stroke-width="15" style="stroke-width: 15;">
      <clipPath id="a" stroke-width="15" style="stroke-width: 15;">
        <path d="M0 512h512V0H0Z" fill="#cc2936" data-original="#000000" opacity="1" stroke-width="15" style="stroke-width: 15;"/>
      </clipPath>
    </defs>
    <g clip-path="url(#a)" transform="matrix(1.33333 0 0 -1.33333 0 682.667)" stroke-width="15" style="stroke-width: 15;">
      <path d="M0 0h70.848l17.083-17.084c3.889-3.889 10.253-3.889 14.141 0L119.156 0h70.847c5.499 0 9.999 4.5 9.999 10v190.006c0 5.5-4.513 9.999-9.999 9.999H0c-5.487 0-10-4.513-10-9.999V10C-10 4.51-5.5 0 0 0Z" style="stroke-width: 15; stroke-linecap: round; stroke-linejoin: round; stroke-miterlimit: 22.926; stroke-dasharray: none; stroke-opacity: 1;" transform="translate(160.998 291.997)" fill="none" stroke="#cc2936" stroke-width="15" stroke-linecap="round" stroke-linejoin="round" stroke-miterlimit="22.926" stroke-dasharray="none" stroke-opacity="" data-original="#000000" opacity="1" class=""/>
      <path d="M0 0v-53.533h35.929l18.083-38.084h8.981" style="stroke-width: 15; stroke-linecap: round; stroke-linejoin: round; stroke-miterlimit: 2.613; stroke-dasharray: none; stroke-opacity: 1;" transform="translate(243.544 427.808)" fill="none" stroke="#cc2936" stroke-width="15" stroke-linecap="round" stroke-linejoin="round" stroke-miterlimit="2.613" stroke-dasharray="none" stroke-opacity="" data-original="#000000" opacity="1" class=""/>
      <path d="M0 0h29.461" style="stroke-width: 15; stroke-linecap: round; stroke-linejoin: round; stroke-miterlimit: 2.613; stroke-dasharray: none; stroke-opacity: 1;" transform="translate(246.06 412.358)" fill="none" stroke="#cc2936" stroke-width="15" stroke-linecap="round" stroke-linejoin="round" stroke-miterlimit="2.613" stroke-dasharray="none" stroke-opacity="" data-original="#000000" opacity="1" class=""/>
      <path d="M0 0a38.083 38.083 0 0 1-7.768-23.05c0-21.033 17.051-38.084 38.083-38.084a38.074 38.074 0 0 1 16.225 3.629" style="stroke-width: 15; stroke-linecap: round; stroke-linejoin: round; stroke-miterlimit: 2.613; stroke-dasharray: none; stroke-opacity: 1;" transform="translate(213.228 397.324)" fill="none" stroke="#cc2936" stroke-width="15" stroke-linecap="round" stroke-linejoin="round" stroke-miterlimit="2.613" stroke-dasharray="none" stroke-opacity="" data-original="#000000" opacity="1" class=""/>
      <path d="M0 0h.008" style="stroke-width: 15; stroke-linecap: round; stroke-linejoin: round; stroke-miterlimit: 22.926; stroke-dasharray: none; stroke-opacity: 1;" transform="translate(243.544 457.809)" fill="none" stroke="#cc2936" stroke-width="15" stroke-linecap="round" stroke-linejoin="round" stroke-miterlimit="22.926" stroke-dasharray="none" stroke-opacity="" data-original="#000000" opacity="1" class=""/>
      <path d="M0 0h260c11 0 20-9.001 20-20v-59.999H-19.999V-20C-19.999-9-11 0 0 0Z" style="stroke-width: 15; stroke-linecap: round; stroke-linejoin: round; stroke-miterlimit: 2.613; stroke-dasharray: none; stroke-opacity: 1;" transform="translate(125.999 130)" fill="none" stroke="#cc2936" stroke-width="15" stroke-linecap="round" stroke-linejoin="round" stroke-miterlimit="2.613" stroke-dasharray="none" stroke-opacity="" data-original="#000000" opacity="1" class=""/>
      <path d="M0 0v-20c0-5.499-4.5-9.999-9.999-9.999h-30c-5.501 0-10 4.499-10 9.999v30.001" style="stroke-width: 15; stroke-linecap: round; stroke-linejoin: round; stroke-miterlimit: 2.613; stroke-dasharray: none; stroke-opacity: 1;" transform="translate(155.999 40)" fill="none" stroke="#cc2936" stroke-width="15" stroke-linecap="round" stroke-linejoin="round" stroke-miterlimit="2.613" stroke-dasharray="none" stroke-opacity="" data-original="#000000" opacity="1" class=""/>
      <path d="M0 0v-30.001C0-35.501-4.5-40-10-40h-30c-5.5 0-10 4.499-10 9.999v20" style="stroke-width: 15; stroke-linecap: round; stroke-linejoin: round; stroke-miterlimit: 2.613; stroke-dasharray: none; stroke-opacity: 1;" transform="translate(405.999 50.001)" fill="none" stroke="#cc2936" stroke-width="15" stroke-linecap="round" stroke-linejoin="round" stroke-miterlimit="2.613" stroke-dasharray="none" stroke-opacity="" data-original="#000000" opacity="1" class=""/>
      <path d="M0 0h45.003c11 0 17.332-9.33 20-20l20-80m-260 0 20.001 80c2.668 10.672 8.999 20 20 20H-90" style="stroke-width: 15; stroke-linecap: round; stroke-linejoin: round; stroke-miterlimit: 2.613; stroke-dasharray: none; stroke-opacity: 1;" transform="translate(300.996 230)" fill="none" stroke="#cc2936" stroke-width="15" stroke-linecap="round" stroke-linejoin="round" stroke-miterlimit="2.613" stroke-dasharray="none" stroke-opacity="" data-original="#000000" opacity="1" class=""/>
      <path d="M0 0h.008m174.984 0H45.004m174.992 0h-.007" style="stroke-width: 15; stroke-linecap: round; stroke-linejoin: round; stroke-miterlimit: 22.926; stroke-dasharray: none; stroke-opacity: 1;" transform="translate(146.001 90)" fill="none" stroke="#cc2936" stroke-width="15" stroke-linecap="round" stroke-linejoin="round" stroke-miterlimit="22.926" stroke-dasharray="none" stroke-opacity="" data-original="#000000" opacity="1" class=""/>
      <path d="M0 0h.007" style="stroke-width: 15; stroke-linecap: round; stroke-linejoin: round; stroke-miterlimit: 2.613; stroke-dasharray: none; stroke-opacity: 1;" transform="translate(255.992 230)" fill="none" stroke="#cc2936" stroke-width="15" stroke-linecap="round" stroke-linejoin="round" stroke-miterlimit="2.613" stroke-dasharray="none" stroke-opacity="" data-original="#000000" opacity="1" class=""/>
    </g>
  </g>
</svg>
